<?xml version="1.0" encoding="iso-8859-1"?>
<!-- Uploaded to: SVG Repo, www.svgrepo.com, Generator: SVG Repo Mixer Tools -->
<svg fill="#000000" height="800px" width="800px" version="1.1" id="Layer_1" xmlns="http://www.w3.org/2000/svg" xmlns:xlink="http://www.w3.org/1999/xlink" 
	 viewBox="0 0 472.615 472.615" xml:space="preserve">
<g>
	<g>
		<path d="M443.077,413.538c-12.8,0-23.729,8.172-27.766,19.692h-41.157v-94.105c20.456-0.837,36.615-7.459,48.443-14.891
			c34.363-21.564,50.018-59.472,50.018-85.662c0-42.043-28.062-77.391-67.052-86.942c4.234-13.49,5.908-27.569,5.12-42.043
			C407.138,49.624,356.234,0.491,297.157,0h-0.886c-47.754,0-90.289,30.523-107.028,74.929
			c-17.526-14.474-40.074-21.563-63.015-19.2C93.44,58.88,64.985,81.821,53.563,114.117c-5.12,14.374-6.4,29.045-3.742,43.913
			C19.692,172.799,0,204.111,0,238.572c0,48.246,35.151,83.594,84.283,85.563c3.727,6.082,8.72,10.893,14.178,14.818v94.278H57.305
			c-4.037-11.52-14.966-19.692-27.766-19.692C13.292,413.538,0,426.732,0,443.077c0,16.246,13.292,29.539,29.538,29.539
			c12.8,0,23.729-8.271,27.766-19.692h60.849V348.715c6.728,2.086,13.164,3.088,18.215,3.088c19.548,0,33.315-2.696,50.708-15.956
			v79.464c-11.422,4.036-19.692,14.868-19.692,27.765c0,16.246,13.292,29.539,29.539,29.539s29.538-13.292,29.538-29.539
			c0-12.897-8.271-23.729-19.692-27.765v-77.349c10.516,7.193,25.676,13.742,46.375,13.742c8.324,0,15.821-1.001,22.548-2.631
			v66.238C264.271,419.348,256,430.179,256,443.077c0,16.246,13.292,29.539,29.538,29.539s29.538-13.292,29.538-29.539
			c0-12.897-8.271-23.729-19.692-27.765v-73.715c9.121-4.8,15.865-10.386,20.185-14.704c14.119,6.155,27.055,9.624,38.892,11.229
			v114.801h60.849c4.037,11.422,14.966,19.692,27.766,19.692c16.246,0,29.539-13.292,29.539-29.539
			C472.615,426.732,459.323,413.538,443.077,413.538z"/>
	</g>
</g>
</svg>